<svg xmlns="http://www.w3.org/2000/svg" viewBox="0 0 32 32" fill="none">
  <rect width="32" height="32" rx="8" fill="url(#bg)"/>
  <path d="M6 9.2c2.7-1.1 5.8-1.1 8.5 0l1.5.6 1.5-.6c2.7-1.1 5.8-1.1 8.5 0v12.1c-2.7-1.1-5.8-1.1-8.5 0l-1.5.6-1.5-.6c-2.7-1.1-5.8-1.1-8.5 0V9.2Z" stroke="white" stroke-width="1.6" stroke-linejoin="round"/>
  <path d="M9 18.8 13.4 14l3 2.5 2.5-2.7 3.8 3.1" stroke="white" stroke-width="1.7" stroke-linecap="round" stroke-linejoin="round"/>
  <circle cx="9" cy="18.8" r="1.2" fill="white"/>
  <circle cx="13.4" cy="14" r="1.2" fill="white"/>
  <circle cx="16.4" cy="16.5" r="1.2" fill="white"/>
  <circle cx="18.9" cy="13.8" r="1.2" fill="white"/>
  <circle cx="22.7" cy="16.9" r="1.2" fill="white"/>
  <defs>
    <linearGradient id="bg" x1="4" y1="2" x2="28" y2="30" gradientUnits="userSpaceOnUse">
      <stop stop-color="#0B1020"/>
      <stop offset="1" stop-color="#2563EB"/>
    </linearGradient>
  </defs>
</svg>
