<svg xmlns="http://www.w3.org/2000/svg" viewBox="0 0 32 32" fill="none">
  <rect width="32" height="32" rx="8" fill="url(#bg)"/>
  <path d="M6.2 9.4c2.6-1 5.5-1 8.1 0l1.7.7 1.7-.7c2.6-1 5.5-1 8.1 0v12.2c-2.6-1-5.5-1-8.1 0l-1.7.7-1.7-.7c-2.6-1-5.5-1-8.1 0V9.4Z" stroke="white" stroke-width="1.6" stroke-linejoin="round"/>
  <path d="M10.1 19.3h3.3M10.1 17.1h2.1M18.1 16.9h3.6M18.1 19.2h2.3" stroke="white" stroke-width="1.4" stroke-linecap="round"/>
  <path d="M10.1 14.6 12 13l1.9 1.2M18.1 14.8l1.7-2 2 2.4" stroke="white" stroke-width="1.5" stroke-linecap="round" stroke-linejoin="round"/>
  <defs>
    <linearGradient id="bg" x1="3" y1="3" x2="29" y2="29" gradientUnits="userSpaceOnUse">
      <stop stop-color="#111827"/>
      <stop offset="1" stop-color="#1D4ED8"/>
    </linearGradient>
  </defs>
</svg>
